<svg xmlns="http://www.w3.org/2000/svg" height="768" width="1024"><g style="font-style:normal;font-weight:700;font-size:72px;line-height:1;font-family:&quot;Roboto slab&quot;;font-variant-ligatures:none;text-align:center;text-anchor:middle"><path style="font-style:normal;font-weight:700;font-size:72px;line-height:1;font-family:&quot;Roboto slab&quot;;font-variant-ligatures:none;text-align:center;text-anchor:middle" d="m308.621-6.152 4.922-1.055v-23.59l-5.45-1.055v-6.187h15.012l.457 5.555q1.336-2.953 3.446-4.606 2.11-1.652 4.887-1.652.808 0 1.687.14.914.106 1.512.282l-1.09 9.351-4.219-.105q-2.25 0-3.726.879-1.477.879-2.25 2.496v18.492l4.921 1.055V0h-20.109zM337.906 0zm23.836 0q-.422-.95-.738-1.934-.317-1.02-.492-2.039-1.828 2.11-4.465 3.41Q353.445.739 350.07.739q-5.59 0-8.894-3.023-3.27-3.059-3.27-8.297 0-5.344 4.29-8.262 4.288-2.918 12.585-2.918h5.239v-3.726q0-2.742-1.582-4.254-1.583-1.512-4.676-1.512-1.758 0-3.13.422-1.37.387-2.214.95l-.668 4.077h-7.734l.035-8.437q2.812-1.899 6.433-3.2 3.657-1.3 7.946-1.3 7.066 0 11.46 3.48 4.43 3.446 4.43 9.844v17.367q.036.774.141 1.477l3.129.422V0Zm-8.894-6.855q2.32 0 4.218-.985 1.899-1.02 2.954-2.531v-5.8h-5.239q-3.27 0-4.957 1.546-1.687 1.512-1.687 3.656 0 1.934 1.23 3.024 1.266 1.09 3.48 1.09zm3.445-45.95h10.863l.07.211-9.703 9.14h-8.226z" fill="#171717" transform="matrix(2 0 0 2 -512 423.48)"/><path style="font-style:normal;font-weight:700;font-size:72px;line-height:1;font-family:&quot;Roboto slab&quot;;font-variant-ligatures:none;text-align:center;text-anchor:middle" d="M401.785-4.64q-1.793 2.636-4.254 4.007-2.426 1.371-5.554 1.371-7.032 0-10.934-5.133-3.867-5.132-3.867-13.57v-.738q0-9 3.902-14.52t10.969-5.52q2.848 0 5.133 1.266 2.285 1.23 4.007 3.516V-47.6l-5.484-1.055v-6.188h15.75v47.637l4.922 1.055V0h-13.816zm-14.344-13.325q0 4.992 1.653 7.875 1.687 2.848 5.484 2.848 2.25 0 3.902-.914 1.653-.914 2.708-2.637V-26.93q-1.055-1.828-2.708-2.812-1.617-1.02-3.832-1.02-3.761 0-5.484 3.34-1.723 3.34-1.723 8.719z" fill="#171818" transform="matrix(2 0 0 2 -512 423.48)"/><path style="font-style:normal;font-weight:700;font-size:72px;line-height:1;font-family:&quot;Roboto slab&quot;;font-variant-ligatures:none;text-align:center;text-anchor:middle" d="m419.328-6.152 4.957-1.055v-23.59l-5.484-1.055v-6.187h15.75v30.832l4.922 1.055V0h-20.145zm15.223-40.993h-10.266v-7.699h10.266zM442.848-19.371q0-8.508 4.746-13.922 4.781-5.45 13.183-5.45 8.438 0 13.184 5.415 4.781 5.414 4.781 13.957v.738q0 8.578-4.781 13.992Q469.215.74 460.848.74q-8.473 0-13.254-5.38-4.746-5.414-4.746-13.992zm10.265.738q0 5.203 1.828 8.367 1.829 3.13 5.907 3.13 3.972 0 5.8-3.165 1.864-3.164 1.864-8.332v-.738q0-5.063-1.864-8.262-1.863-3.199-5.87-3.199-4.008 0-5.837 3.2-1.828 3.198-1.828 8.26zM498.29 1.406q0 6.68-3.552 10.301-3.55 3.656-9.843 3.656-1.442 0-2.637-.14-1.16-.141-2.426-.457l.492-7.84q.774.21 1.582.316.809.106 1.758.106 2.074 0 3.2-1.477 1.16-1.441 1.16-4.465v-32.203l-5.485-1.055v-6.187h15.75zm-.212-48.62h-10.265v-7.63h10.265z" fill="#181818" transform="matrix(2 0 0 2 -512 423.48)"/><path style="font-style:normal;font-weight:700;font-size:72px;line-height:1;font-family:&quot;Roboto slab&quot;;font-variant-ligatures:none;text-align:center;text-anchor:middle" d="M504.3-19.371q0-8.508 4.747-13.922 4.781-5.45 13.183-5.45 8.438 0 13.184 5.415 4.781 5.414 4.781 13.957v.738q0 8.578-4.78 13.992Q530.667.74 522.3.74q-8.473 0-13.254-5.38-4.746-5.414-4.746-13.992zm10.266.738q0 5.203 1.829 8.367 1.828 3.13 5.906 3.13 3.972 0 5.8-3.165 1.864-3.164 1.864-8.332v-.738q0-5.063-1.863-8.262-1.864-3.199-5.872-3.199-4.007 0-5.835 3.2-1.829 3.198-1.829 8.26zM545.434-6.152l4.921-1.055v-23.59l-5.449-1.055v-6.187h15.012l.457 5.555q1.336-2.953 3.445-4.606 2.11-1.652 4.887-1.652.809 0 1.688.14.914.106 1.511.282l-1.09 9.351-4.218-.105q-2.25 0-3.727.879-1.476.879-2.25 2.496v18.492l4.922 1.055V0h-20.11zM574.473-6.152l4.922-1.055v-23.59l-5.45-1.055v-6.187h15.012l.457 5.45q1.899-2.919 4.676-4.536 2.777-1.617 6.223-1.617 5.765 0 9 3.62 3.234 3.622 3.234 11.356v16.559l4.922 1.055V0h-19.617v-6.152l4.394-1.055V-23.73q0-3.832-1.547-5.415-1.547-1.617-4.676-1.617-2.039 0-3.656.844-1.617.809-2.707 2.32v20.391l4.149 1.055V0h-19.336z" fill="#181919" transform="matrix(2 0 0 2 -512 423.48)"/><path style="font-style:normal;font-weight:700;font-size:72px;line-height:1;font-family:&quot;Roboto slab&quot;;font-variant-ligatures:none;text-align:center;text-anchor:middle" d="M644.96 0q-.42-.95-.737-1.934-.317-1.02-.493-2.039-1.828 2.11-4.464 3.41-2.602 1.301-5.977 1.301-5.59 0-8.894-3.023-3.27-3.059-3.27-8.297 0-5.344 4.29-8.262 4.288-2.918 12.585-2.918h5.238v-3.726q0-2.742-1.582-4.254-1.582-1.512-4.676-1.512-1.757 0-3.128.422-1.372.387-2.215.95l-.668 4.077h-7.735l.036-8.437q2.812-1.899 6.433-3.2 3.656-1.3 7.945-1.3 7.067 0 11.461 3.48 4.43 3.446 4.43 9.844v17.367q.035.774.14 1.477l3.13.422V0Zm-8.894-6.855q2.32 0 4.22-.985 1.898-1.02 2.952-2.531v-5.8H638q-3.27 0-4.957 1.546-1.688 1.512-1.688 3.656 0 1.934 1.23 3.024 1.267 1.09 3.481 1.09z" fill="#191919" transform="matrix(2 0 0 2 -512 423.48)"/><path style="font-style:normal;font-weight:700;font-size:72px;line-height:1;font-family:&quot;Roboto slab&quot;;font-variant-ligatures:none;text-align:center;text-anchor:middle" d="m659.938-6.152 4.957-1.055v-23.59l-5.485-1.055v-6.187h15.75v30.832l4.922 1.055V0h-20.144Zm15.222-40.993h-10.265v-7.699h10.265zM714.5-24.96h-6.89l-1.09-4.747q-1.055-.844-2.672-1.406-1.582-.563-3.516-.563-2.707 0-4.289 1.23-1.582 1.196-1.582 3.024 0 1.723 1.512 2.883 1.511 1.125 6.047 2.004 7.066 1.406 10.476 4.148 3.41 2.707 3.41 7.489 0 5.132-4.43 8.402Q707.083.738 699.876.738q-4.395 0-8.086-1.265-3.656-1.301-6.504-3.692l-.105-8.543h7.172l1.406 4.957q.914.774 2.496 1.16 1.582.352 3.305.352 3.128 0 4.746-1.125 1.652-1.125 1.652-3.059 0-1.687-1.652-2.918-1.653-1.23-6.082-2.18-6.715-1.37-10.16-4.042-3.41-2.707-3.41-7.348 0-4.781 3.937-8.226 3.937-3.48 11.215-3.48 4.43 0 8.367 1.194 3.973 1.196 6.223 3.059z" fill="#191a1a" transform="matrix(2 0 0 2 -512 423.48)"/></g></svg>